<svg width="652" height="200" viewBox="0 0 652 200" fill="none" xmlns="http://www.w3.org/2000/svg">
<g clip-path="url(#clip0_1_8)">
<path d="M63.3389 65.8929H70.2496V72.8036H63.3389V65.8929ZM70.2496 65.8929H77.1603V72.8036H70.2496V65.8929ZM77.1603 65.8929H84.071V72.8036H77.1603V65.8929ZM84.071 65.8929H90.9817V72.8036H84.071V65.8929ZM90.9817 65.8929H97.8924V72.8036H90.9817V65.8929ZM97.8924 65.8929H104.803V72.8036H97.8924V65.8929ZM97.8924 72.8036H104.803V79.7143H97.8924V72.8036ZM90.9817 72.8036H97.8924V79.7143H90.9817V72.8036ZM84.071 72.8036H90.9817V79.7143H84.071V72.8036ZM77.1603 72.8036H84.071V79.7143H77.1603V72.8036ZM70.2496 72.8036H77.1603V79.7143H70.2496V72.8036ZM63.3389 72.8036H70.2496V79.7143H63.3389V72.8036ZM77.1603 79.7143H84.071V86.625H77.1603V79.7143ZM77.1603 86.625H84.071V93.5357H77.1603V86.625ZM77.1603 93.5357H84.071V100.446H77.1603V93.5357ZM77.1603 100.446H84.071V107.357H77.1603V100.446ZM77.1603 107.357H84.071V114.268H77.1603V107.357ZM77.1603 114.268H84.071V121.179H77.1603V114.268ZM84.071 107.357H90.9817V114.268H84.071V107.357ZM84.071 100.446H90.9817V107.357H84.071V100.446ZM84.071 93.5357H90.9817V100.446H84.071V93.5357ZM84.071 86.625H90.9817V93.5357H84.071V86.625ZM84.071 79.7143H90.9817V86.625H84.071V79.7143ZM84.071 114.268H90.9817V121.179H84.071V114.268ZM84.071 121.179H90.9817V128.089H84.071V121.179ZM84.071 128.089H90.9817V135H84.071V128.089ZM77.1603 128.089H84.071V135H77.1603V128.089ZM77.1603 121.179H84.071V128.089H77.1603V121.179ZM125.535 79.7143H132.446V86.625H125.535V79.7143ZM118.625 79.7143H125.535V86.625H118.625V79.7143ZM118.625 86.625H125.535V93.5357H118.625V86.625ZM125.535 86.625H132.446V93.5357H125.535V86.625ZM132.446 79.7143H139.357V86.625H132.446V79.7143ZM139.357 79.7143H146.267V86.625H139.357V79.7143ZM146.267 79.7143H153.178V86.625H146.267V79.7143ZM146.267 86.625H153.178V93.5357H146.267V86.625ZM139.357 86.625H146.267V93.5357H139.357V86.625ZM146.267 100.446H153.178V107.357H146.267V100.446ZM153.178 86.625H160.089V93.5357H153.178V86.625ZM153.178 93.5357H160.089V100.446H153.178V93.5357ZM153.178 100.446H160.089V107.357H153.178V100.446ZM153.178 107.357H160.089V114.268H153.178V107.357ZM153.178 114.268H160.089V121.179H153.178V114.268ZM153.178 121.179H160.089V128.089H153.178V121.179ZM146.267 121.179H153.178V128.089H146.267V121.179ZM146.267 114.268H153.178V121.179H146.267V114.268ZM146.267 107.357H153.178V114.268H146.267V107.357ZM146.267 93.5357H153.178V100.446H146.267V93.5357ZM139.357 121.179H146.267V128.089H139.357V121.179ZM146.267 128.089H153.178V135H146.267V128.089ZM139.357 128.089H146.267V135H139.357V128.089ZM132.446 128.089H139.357V135H132.446V128.089ZM125.535 128.089H132.446V135H125.535V128.089ZM118.625 128.089H125.535V135H118.625V128.089ZM118.625 121.179H125.535V128.089H118.625V121.179ZM125.535 121.179H132.446V128.089H125.535V121.179ZM118.625 114.268H125.535V121.179H118.625V114.268ZM111.714 121.179H118.625V128.089H111.714V121.179ZM111.714 114.268H118.625V121.179H111.714V114.268ZM111.714 107.357H118.625V114.268H111.714V107.357ZM111.714 100.446H118.625V107.357H111.714V100.446ZM111.714 93.5357H118.625V100.446H111.714V93.5357ZM111.714 86.625H118.625V93.5357H111.714V86.625ZM118.625 93.5357H125.535V100.446H118.625V93.5357ZM118.625 100.446H125.535V107.357H118.625V100.446ZM118.625 107.357H125.535V114.268H118.625V107.357ZM132.446 121.179H139.357V128.089H132.446V121.179ZM132.446 86.625H139.357V93.5357H132.446V86.625ZM215.393 128.089H208.482V121.179H215.393V128.089ZM215.393 135H208.482V128.089H215.393V135ZM208.482 135H201.571V128.089H208.482V135ZM208.482 128.089H201.571V121.179H208.482V128.089ZM208.482 121.179H201.571V114.268H208.482V121.179ZM208.482 114.268H201.571V107.357H208.482V114.268ZM208.482 107.357H201.571V100.446H208.482V107.357ZM215.393 107.357H208.482V100.446H215.393V107.357ZM215.393 114.268H208.482V107.357H215.393V114.268ZM215.393 121.179H208.482V114.268H215.393V121.179ZM215.393 100.446H208.482V93.5357H215.393V100.446ZM208.482 100.446H201.571V93.5357H208.482V100.446ZM208.482 93.5357H201.571V86.625H208.482V93.5357ZM208.482 86.625H201.571V79.7143H208.482V86.625ZM215.393 86.625H208.482V79.7143H215.393V86.625ZM215.393 93.5357H208.482V86.625H215.393V93.5357ZM180.839 86.625H173.928V79.7143H180.839V86.625ZM173.928 86.625H167.018V79.7143H173.928V86.625ZM173.928 93.5357H167.018V86.625H173.928V93.5357ZM173.928 100.446H167.018V93.5357H173.928V100.446ZM173.928 107.357H167.018V100.446H173.928V107.357ZM173.928 114.268H167.018V107.357H173.928V114.268ZM173.928 121.179H167.018V114.268H173.928V121.179ZM173.928 128.089H167.018V121.179H173.928V128.089ZM180.839 114.268H173.928V107.357H180.839V114.268ZM180.839 107.357H173.928V100.446H180.839V107.357ZM180.839 100.446H173.928V93.5357H180.839V100.446ZM180.839 93.5357H173.928V86.625H180.839V93.5357ZM180.839 121.179H173.928V114.268H180.839V121.179ZM201.571 128.089H194.66V121.179H201.571V128.089ZM194.66 128.089H187.75V121.179H194.66V128.089ZM187.75 128.089H180.839V121.179H187.75V128.089ZM187.75 135H180.839V128.089H187.75V135ZM180.839 135H173.928V128.089H180.839V135ZM180.839 128.089H173.928V121.179H180.839V128.089ZM194.66 135H187.75V128.089H194.66V135ZM236.143 79.7143H243.053V86.625H236.143V79.7143ZM229.232 79.7143H236.143V86.625H229.232V79.7143ZM229.232 86.625H236.143V93.5357H229.232V86.625ZM236.143 86.625H243.053V93.5357H236.143V86.625ZM243.053 79.7143H249.964V86.625H243.053V79.7143ZM249.964 79.7143H256.875V86.625H249.964V79.7143ZM256.875 79.7143H263.786V86.625H256.875V79.7143ZM256.875 86.625H263.786V93.5357H256.875V86.625ZM249.964 86.625H256.875V93.5357H249.964V86.625ZM263.786 86.625H270.696V93.5357H263.786V86.625ZM263.786 93.5357H270.696V100.446H263.786V93.5357ZM263.786 114.268H270.696V121.179H263.786V114.268ZM263.786 121.179H270.696V128.089H263.786V121.179ZM256.875 121.179H263.786V128.089H256.875V121.179ZM256.875 114.268H263.786V121.179H256.875V114.268ZM256.875 93.5357H263.786V100.446H256.875V93.5357ZM249.964 121.179H256.875V128.089H249.964V121.179ZM256.875 128.089H263.786V135H256.875V128.089ZM249.964 128.089H256.875V135H249.964V128.089ZM243.053 128.089H249.964V135H243.053V128.089ZM236.143 128.089H243.053V135H236.143V128.089ZM229.232 128.089H236.143V135H229.232V128.089ZM229.232 121.179H236.143V128.089H229.232V121.179ZM236.143 121.179H243.053V128.089H236.143V121.179ZM229.232 114.268H236.143V121.179H229.232V114.268ZM222.321 121.179H229.232V128.089H222.321V121.179ZM222.321 114.268H229.232V121.179H222.321V114.268ZM222.321 107.357H229.232V114.268H222.321V107.357ZM222.321 100.446H229.232V107.357H222.321V100.446ZM222.321 93.5357H229.232V100.446H222.321V93.5357ZM222.321 86.625H229.232V93.5357H222.321V86.625ZM229.232 93.5357H236.143V100.446H229.232V93.5357ZM229.232 100.446H236.143V107.357H229.232V100.446ZM229.232 107.357H236.143V114.268H229.232V107.357ZM243.053 121.179H249.964V128.089H243.053V121.179ZM243.053 86.625H249.964V93.5357H243.053V86.625ZM277.625 86.625H284.536V93.5357H277.625V86.625ZM277.625 79.7143H284.536V86.625H277.625V79.7143ZM284.536 79.7143H291.446V86.625H284.536V79.7143ZM284.536 86.625H291.446V93.5357H284.536V86.625ZM284.536 93.5357H291.446V100.446H284.536V93.5357ZM284.536 100.446H291.446V107.357H284.536V100.446ZM284.536 107.357H291.446V114.268H284.536V107.357ZM277.625 107.357H284.536V114.268H277.625V107.357ZM277.625 100.446H284.536V107.357H277.625V100.446ZM277.625 93.5357H284.536V100.446H277.625V93.5357ZM277.625 114.268H284.536V121.179H277.625V114.268ZM284.536 114.268H291.446V121.179H284.536V114.268ZM284.536 121.179H291.446V128.089H284.536V121.179ZM284.536 128.089H291.446V135H284.536V128.089ZM277.625 128.089H284.536V135H277.625V128.089ZM277.625 121.179H284.536V128.089H277.625V121.179ZM312.179 128.089H319.089V135H312.179V128.089ZM319.089 128.089H326V135H319.089V128.089ZM319.089 121.179H326V128.089H319.089V121.179ZM319.089 114.268H326V121.179H319.089V114.268ZM319.089 107.357H326V114.268H319.089V107.357ZM319.089 100.446H326V107.357H319.089V100.446ZM319.089 93.5357H326V100.446H319.089V93.5357ZM319.089 86.625H326V93.5357H319.089V86.625ZM312.179 100.446H319.089V107.357H312.179V100.446ZM312.179 107.357H319.089V114.268H312.179V107.357ZM312.179 114.268H319.089V121.179H312.179V114.268ZM312.179 121.179H319.089V128.089H312.179V121.179ZM312.179 93.5357H319.089V100.446H312.179V93.5357ZM291.446 86.625H298.357V93.5357H291.446V86.625ZM298.357 86.625H305.268V93.5357H298.357V86.625ZM305.268 86.625H312.179V93.5357H305.268V86.625ZM305.268 79.7143H312.179V86.625H305.268V79.7143ZM312.179 79.7143H319.089V86.625H312.179V79.7143ZM312.179 86.625H319.089V93.5357H312.179V86.625ZM298.357 79.7143H305.268V86.625H298.357V79.7143ZM277.625 65.8929H284.536V72.8036H277.625V65.8929ZM284.536 65.8929H291.446V72.8036H284.536V65.8929ZM284.536 72.8036H291.446V79.7143H284.536V72.8036ZM277.625 72.8036H284.536V79.7143H277.625V72.8036ZM346.75 65.8929H353.661V72.8036H346.75V65.8929ZM339.839 65.8929H346.75V72.8036H339.839V65.8929ZM339.839 72.8036H346.75V79.7143H339.839V72.8036ZM346.75 72.8036H353.661V79.7143H346.75V72.8036ZM353.661 72.8036H360.572V79.7143H353.661V72.8036ZM353.661 65.8929H360.572V72.8036H353.661V65.8929ZM360.572 65.8929H367.482V72.8036H360.572V65.8929ZM367.482 65.8929H374.393V72.8036H367.482V65.8929ZM367.482 72.8036H374.393V79.7143H367.482V72.8036ZM360.572 72.8036H367.482V79.7143H360.572V72.8036ZM367.482 79.7143H374.393V86.625H367.482V79.7143ZM374.393 72.8036H381.304V79.7143H374.393V72.8036ZM374.393 79.7143H381.304V86.625H374.393V79.7143ZM374.393 114.268H381.304V121.179H374.393V114.268ZM374.393 121.179H381.304V128.089H374.393V121.179ZM367.482 121.179H374.393V128.089H367.482V121.179ZM367.482 114.268H374.393V121.179H367.482V114.268ZM360.572 121.179H367.482V128.089H360.572V121.179ZM367.482 128.089H374.393V135H367.482V128.089ZM360.572 128.089H367.482V135H360.572V128.089ZM353.661 128.089H360.572V135H353.661V128.089ZM353.661 121.179H360.572V128.089H353.661V121.179ZM346.75 128.089H353.661V135H346.75V128.089ZM339.839 128.089H346.75V135H339.839V128.089ZM339.839 121.179H346.75V128.089H339.839V121.179ZM346.75 121.179H353.661V128.089H346.75V121.179ZM346.75 114.268H353.661V121.179H346.75V114.268ZM339.839 114.268H346.75V121.179H339.839V114.268ZM332.929 121.179H339.839V128.089H332.929V121.179ZM332.929 114.268H339.839V121.179H332.929V114.268ZM332.929 107.357H339.839V114.268H332.929V107.357ZM332.929 100.446H339.839V107.357H332.929V100.446ZM332.929 93.5357H339.839V100.446H332.929V93.5357ZM332.929 86.625H339.839V93.5357H332.929V86.625ZM332.929 79.7143H339.839V86.625H332.929V79.7143ZM339.839 79.7143H346.75V86.625H339.839V79.7143ZM332.929 72.8036H339.839V79.7143H332.929V72.8036ZM346.75 79.7143H353.661V86.625H346.75V79.7143ZM339.839 86.625H346.75V93.5357H339.839V86.625ZM339.839 93.5357H346.75V100.446H339.839V93.5357ZM339.839 100.446H346.75V107.357H339.839V100.446ZM339.839 107.357H346.75V114.268H339.839V107.357ZM374.393 107.357H381.304V114.268H374.393V107.357ZM367.482 107.357H374.393V114.268H367.482V107.357ZM367.482 100.446H374.393V107.357H367.482V100.446ZM374.393 100.446H381.304V107.357H374.393V100.446ZM374.393 93.5357H381.304V100.446H374.393V93.5357ZM367.482 93.5357H374.393V100.446H367.482V93.5357ZM360.572 93.5357H367.482V100.446H360.572V93.5357ZM353.661 93.5357H360.572V100.446H353.661V93.5357ZM353.661 100.446H360.572V107.357H353.661V100.446ZM360.572 100.446H367.482V107.357H360.572V100.446ZM388.232 86.625H395.143V93.5357H388.232V86.625ZM388.232 79.7143H395.143V86.625H388.232V79.7143ZM395.143 79.7143H402.054V86.625H395.143V79.7143ZM395.143 86.625H402.054V93.5357H395.143V86.625ZM395.143 93.5357H402.054V100.446H395.143V93.5357ZM395.143 100.446H402.054V107.357H395.143V100.446ZM395.143 107.357H402.054V114.268H395.143V107.357ZM388.232 107.357H395.143V114.268H388.232V107.357ZM388.232 100.446H395.143V107.357H388.232V100.446ZM388.232 93.5357H395.143V100.446H388.232V93.5357ZM388.232 114.268H395.143V121.179H388.232V114.268ZM395.143 114.268H402.054V121.179H395.143V114.268ZM395.143 121.179H402.054V128.089H395.143V121.179ZM395.143 128.089H402.054V135H395.143V128.089ZM388.232 128.089H395.143V135H388.232V128.089ZM388.232 121.179H395.143V128.089H388.232V121.179ZM402.054 86.625H408.965V93.5357H402.054V86.625ZM408.965 86.625H415.875V93.5357H408.965V86.625ZM415.875 86.625H422.786V93.5357H415.875V86.625ZM415.875 79.7143H422.786V86.625H415.875V79.7143ZM408.965 79.7143H415.875V86.625H408.965V79.7143ZM402.054 93.5357H408.965V100.446H402.054V93.5357ZM422.786 86.625H429.697V93.5357H422.786V86.625ZM415.875 93.5357H422.786V100.446H415.875V93.5357ZM478.072 135H471.161V128.089H478.072V135ZM478.072 128.089H471.161V121.179H478.072V128.089ZM471.161 128.089H464.25V121.179H471.161V128.089ZM464.25 135H457.34V128.089H464.25V135ZM457.34 135H450.429V128.089H457.34V135ZM450.429 135H443.518V128.089H450.429V135ZM450.429 128.089H443.518V121.179H450.429V128.089ZM457.34 128.089H450.429V121.179H457.34V128.089ZM443.518 128.089H436.607V121.179H443.518V128.089ZM443.518 121.179H436.607V114.268H443.518V121.179ZM443.518 93.5357H436.607V86.625H443.518V93.5357ZM450.429 93.5357H443.518V86.625H450.429V93.5357ZM450.429 121.179H443.518V114.268H450.429V121.179ZM457.34 93.5357H450.429V86.625H457.34V93.5357ZM450.429 86.625H443.518V79.7143H450.429V86.625ZM457.34 86.625H450.429V79.7143H457.34V86.625ZM464.25 86.625H457.34V79.7143H464.25V86.625ZM471.161 86.625H464.25V79.7143H471.161V86.625ZM478.072 86.625H471.161V79.7143H478.072V86.625ZM478.072 93.5357H471.161V86.625H478.072V93.5357ZM471.161 93.5357H464.25V86.625H471.161V93.5357ZM478.072 100.446H471.161V93.5357H478.072V100.446ZM484.982 93.5357H478.072V86.625H484.982V93.5357ZM484.982 100.446H478.072V93.5357H484.982V100.446ZM484.982 107.357H478.072V100.446H484.982V107.357ZM484.982 114.268H478.072V107.357H484.982V114.268ZM484.982 121.179H478.072V114.268H484.982V121.179ZM484.982 128.089H478.072V121.179H484.982V128.089ZM478.072 121.179H471.161V114.268H478.072V121.179ZM478.072 114.268H471.161V107.357H478.072V114.268ZM478.072 107.357H471.161V100.446H478.072V107.357ZM464.25 93.5357H457.34V86.625H464.25V93.5357ZM464.25 128.089H457.34V121.179H464.25V128.089ZM478.072 128.089H484.982V135H478.072V128.089ZM464.25 100.446H471.161V107.357H464.25V100.446ZM457.34 100.446H464.25V107.357H457.34V100.446ZM450.429 100.446H457.34V107.357H450.429V100.446ZM443.518 100.446H450.429V107.357H443.518V100.446ZM436.607 107.357H443.518V114.268H436.607V107.357ZM443.518 107.357H450.429V114.268H443.518V107.357ZM464.25 107.357H471.161V114.268H464.25V107.357ZM457.34 107.357H464.25V114.268H457.34V107.357ZM450.429 107.357H457.34V114.268H450.429V107.357ZM491.911 86.625H498.822V93.5357H491.911V86.625ZM498.822 93.5357H505.733V100.446H498.822V93.5357ZM491.911 93.5357H498.822V100.446H491.911V93.5357ZM491.911 100.446H498.822V107.357H491.911V100.446ZM498.822 100.446H505.733V107.357H498.822V100.446ZM498.822 107.357H505.733V114.268H498.822V107.357ZM505.733 107.357H512.643V114.268H505.733V107.357ZM512.643 107.357H519.554V114.268H512.643V107.357ZM519.554 100.446H526.465V107.357H519.554V100.446ZM512.643 100.446H519.554V107.357H512.643V100.446ZM505.733 100.446H512.643V107.357H505.733V100.446ZM519.554 107.357H526.465V114.268H519.554V107.357ZM526.465 107.357H533.375V114.268H526.465V107.357ZM526.465 114.268H533.375V121.179H526.465V114.268ZM519.554 114.268H526.465V121.179H519.554V114.268ZM519.554 121.179H526.465V128.089H519.554V121.179ZM526.465 121.179H533.375V128.089H526.465V121.179ZM519.554 128.089H526.465V135H519.554V128.089ZM512.643 121.179H519.554V128.089H512.643V121.179ZM505.733 121.179H512.643V128.089H505.733V121.179ZM498.822 121.179H505.733V128.089H498.822V121.179ZM491.911 121.179H498.822V128.089H491.911V121.179ZM498.822 128.089H505.733V135H498.822V128.089ZM505.733 128.089H512.643V135H505.733V128.089ZM512.643 128.089H519.554V135H512.643V128.089ZM526.465 86.625H533.375V93.5357H526.465V86.625ZM519.554 86.625H526.465V93.5357H519.554V86.625ZM519.554 79.7143H526.465V86.625H519.554V79.7143ZM512.643 79.7143H519.554V86.625H512.643V79.7143ZM505.733 79.7143H512.643V86.625H505.733V79.7143ZM498.822 79.7143H505.733V86.625H498.822V79.7143ZM498.822 86.625H505.733V93.5357H498.822V86.625ZM505.733 86.625H512.643V93.5357H505.733V86.625ZM512.643 86.625H519.554V93.5357H512.643V86.625ZM540.286 86.625H547.197V93.5357H540.286V86.625ZM547.197 93.5357H554.108V100.446H547.197V93.5357ZM540.286 93.5357H547.197V100.446H540.286V93.5357ZM540.286 100.446H547.197V107.357H540.286V100.446ZM547.197 100.446H554.108V107.357H547.197V100.446ZM547.197 107.357H554.108V114.268H547.197V107.357ZM554.108 107.357H561.018V114.268H554.108V107.357ZM561.018 107.357H567.929V114.268H561.018V107.357ZM567.929 100.446H574.84V107.357H567.929V100.446ZM561.018 100.446H567.929V107.357H561.018V100.446ZM554.108 100.446H561.018V107.357H554.108V100.446ZM567.929 107.357H574.84V114.268H567.929V107.357ZM574.84 107.357H581.75V114.268H574.84V107.357ZM574.84 114.268H581.75V121.179H574.84V114.268ZM567.929 114.268H574.84V121.179H567.929V114.268ZM567.929 121.179H574.84V128.089H567.929V121.179ZM574.84 121.179H581.75V128.089H574.84V121.179ZM567.929 128.089H574.84V135H567.929V128.089ZM561.018 121.179H567.929V128.089H561.018V121.179ZM554.108 121.179H561.018V128.089H554.108V121.179ZM547.197 121.179H554.108V128.089H547.197V121.179ZM540.286 121.179H547.197V128.089H540.286V121.179ZM547.197 128.089H554.108V135H547.197V128.089ZM554.108 128.089H561.018V135H554.108V128.089ZM561.018 128.089H567.929V135H561.018V128.089ZM574.84 86.625H581.75V93.5357H574.84V86.625ZM567.929 86.625H574.84V93.5357H567.929V86.625ZM567.929 79.7143H574.84V86.625H567.929V79.7143ZM561.018 79.7143H567.929V86.625H561.018V79.7143ZM554.108 79.7143H561.018V86.625H554.108V79.7143ZM547.197 79.7143H554.108V86.625H547.197V79.7143ZM547.197 86.625H554.108V93.5357H547.197V86.625ZM554.108 86.625H561.018V93.5357H554.108V86.625ZM561.018 86.625H567.929V93.5357H561.018V86.625Z" fill="black"/>
</g>
<defs>
<clipPath id="clip0_1_8">
<rect width="652" height="200" fill="white"/>
</clipPath>
</defs>
</svg>
